<?xml version="1.0" encoding="utf-8"?>
<!-- Svg Vector Icons : http://www.onlinewebfonts.com/icon -->
<!DOCTYPE svg PUBLIC "-//W3C//DTD SVG 1.1//EN" "http://www.w3.org/Graphics/SVG/1.1/DTD/svg11.dtd">
<svg version="1.1" xmlns="http://www.w3.org/2000/svg" xmlns:xlink="http://www.w3.org/1999/xlink" x="0px" y="0px" viewBox="0 0 1000 1000" enable-background="new 0 0 1000 1000" xml:space="preserve">
<metadata> Svg Vector Icons : http://www.onlinewebfonts.com/icon </metadata>
<g><path d="M597.8,481c15.6,0,28.6,12.8,28.6,28.5c0,15.7-12.4,28.5-28.3,28.5H402c-15.6,0-28.5-12.8-28.5-28.5c0-15.7,12.8-28.5,28.5-28.5h194.3 M597.8,412.4h-196c-53.9,0-98,44.1-98,98c0,53.8,44.1,98,98,98h196c53.9,0,98-44.1,98-98C695.8,456.5,651.7,412.4,597.8,412.4L597.8,412.4z"/><path d="M990,48.6H10v263.9h67.8v638.9h844.4V312.5H990V48.6z M854.3,881.6h-709V312.5h709V881.6z M922.2,244.7H77.8V116.4h844.4V244.7z"/></g>
</svg>