<svg version="1" xmlns="http://www.w3.org/2000/svg" width="682.667" height="682.667" viewBox="0 0 512.000000 512.000000"><path d="M41.5 1C23.2 4.8 8.5 18 2.4 36 .6 41.3.5 49.4.5 256s.1 214.7 1.9 220c5.2 15.4 16.8 27.4 32.2 33.2l5.9 2.3h431l5.9-2.3c15.4-5.8 27-17.8 32.2-33.2 1.8-5.3 1.9-13.4 1.9-220s-.1-214.7-1.9-220c-5.2-15.4-16.8-27.4-32.2-33.2L471.5.5l-213-.1C141.3.3 43.7.6 41.5 1zm143.7 114.2c4.1 6.2 41.3 63.4 82.8 127.2l75.5 115.8.3-127.1.2-127.1h37v305h-46.6l-83-127.7-82.9-127.7-.3 127.7L168 409h-36V104h45.8l7.4 11.2z"/></svg>